<?xml version="1.0" standalone="no"?>
<!DOCTYPE svg PUBLIC "-//W3C//DTD SVG 20010904//EN"
 "http://www.w3.org/TR/2001/REC-SVG-20010904/DTD/svg10.dtd">
<svg version="1.0" xmlns="http://www.w3.org/2000/svg"
 width="1024.000000pt" height="768.000000pt" viewBox="0 0 1024.000000 768.000000"
 preserveAspectRatio="xMidYMid meet">

<g transform="translate(0.000000,768.000000) scale(0.100000,-0.100000)"
fill="#000000" stroke="none">
<path d="M4543 5323 c15 -2 39 -2 55 0 15 2 2 4 -28 4 -30 0 -43 -2 -27 -4z"/>
<path d="M4658 5323 c12 -2 32 -2 45 0 12 2 2 4 -23 4 -25 0 -35 -2 -22 -4z"/>
<path d="M438 5314 c-5 -4 -8 -376 -8 -826 l0 -818 368 0 c389 0 502 9 630 50
269 87 473 267 536 474 44 142 56 319 32 450 -53 278 -222 491 -471 595 -173
72 -185 74 -655 78 -234 3 -428 1 -432 -3z m862 -299 c260 -64 408 -243 426
-515 15 -223 -92 -410 -291 -505 -135 -65 -259 -85 -531 -85 l-182 0 -4 28
c-8 54 -10 761 -3 930 l8 173 256 -5 c187 -4 273 -9 321 -21z"/>
<path d="M9020 5099 c0 -122 -3 -226 -6 -230 -3 -5 -24 -8 -47 -6 l-42 2 -3
-78 c-2 -48 2 -84 8 -92 7 -8 31 -17 55 -21 l44 -6 3 -367 3 -366 30 -54 c35
-63 89 -110 171 -148 98 -46 291 -44 392 4 l35 17 -7 120 c-4 66 -10 124 -12
128 -3 4 -23 -2 -44 -14 -21 -13 -37 -25 -35 -28 3 -5 -12 -7 -111 -12 -75 -3
-108 15 -137 80 -20 44 -21 66 -23 345 l-2 297 101 1 c56 1 118 3 137 4 19 1
63 3 98 4 l62 1 0 95 0 95 -195 0 -195 0 -1 208 c-1 114 -2 214 -3 222 -1 12
-25 16 -138 18 l-137 3 -1 -222z m207 205 c-3 -3 -12 -4 -19 -1 -8 3 -5 6 6 6
11 1 17 -2 13 -5z m410 -1355 c-1 -44 -3 -49 -14 -33 -9 12 -9 21 -2 30 5 6 9
16 8 20 -2 13 1 34 5 34 2 0 3 -23 3 -51z m-27 11 c0 -5 -7 -10 -15 -10 -8 0
-15 5 -15 10 0 6 7 10 15 10 8 0 15 -4 15 -10z m37 -160 c-1 -11 -5 -20 -9
-20 -10 0 -10 4 -2 24 8 22 13 20 11 -4z"/>
<path d="M2556 4889 c-130 -17 -263 -86 -366 -190 -71 -71 -113 -140 -129
-211 -6 -25 -11 -112 -12 -194 -1 -139 1 -154 26 -224 58 -158 150 -260 300
-330 98 -47 161 -60 273 -60 198 0 360 80 481 237 157 203 182 438 70 653 -44
85 -130 182 -206 234 -104 70 -286 105 -437 85z m210 -275 c46 -16 93 -45 127
-78 8 -8 17 -12 21 -9 3 4 6 -3 6 -13 0 -11 4 -24 8 -30 5 -5 17 -35 27 -67
26 -86 18 -245 -16 -306 -91 -168 -278 -226 -449 -139 -36 18 -75 45 -88 61
-13 15 -31 27 -40 27 -13 0 -14 2 -4 9 11 7 11 11 0 22 -53 53 -64 275 -19
354 40 69 61 94 105 124 85 58 223 78 322 45z"/>
<path d="M4008 4893 c6 -2 18 -2 25 0 6 3 1 5 -13 5 -14 0 -19 -2 -12 -5z"/>
<path d="M3868 4883 c7 -3 16 -2 19 1 4 3 -2 6 -13 5 -11 0 -14 -3 -6 -6z"/>
<path d="M8200 4874 c-94 -20 -184 -70 -262 -145 -62 -59 -69 -68 -63 -95 6
-26 5 -27 -8 -12 -13 16 -18 10 -52 -63 -27 -58 -38 -95 -37 -125 0 -24 -4
-44 -9 -44 -16 0 -10 -48 7 -54 25 -10 27 -8 21 29 -5 31 6 55 19 42 5 -5 12
-45 13 -77 1 -10 14 -16 43 -18 52 -3 70 -17 62 -47 -4 -17 0 -26 14 -34 11
-6 22 -8 24 -5 3 3 8 -7 10 -21 4 -16 0 -29 -10 -34 -11 -6 -8 -9 12 -13 16
-3 26 -1 25 6 -3 28 4 39 11 16 5 -16 8 21 9 99 1 109 -1 122 -14 111 -13 -11
-14 -10 -9 4 4 11 14 16 25 13 15 -4 19 1 19 24 0 16 5 29 10 29 6 0 10 15 10
33 0 25 3 29 11 17 8 -11 9 -8 4 13 -4 20 -2 27 5 22 13 -8 41 25 33 39 -4 5
-1 6 5 2 6 -3 13 -2 17 3 3 6 12 8 20 4 18 -6 20 13 3 21 -7 3 1 3 17 0 18 -4
25 -2 18 3 -20 15 174 23 267 12 46 -5 89 -23 103 -43 5 -8 10 -6 17 4 9 13
10 13 10 0 0 -8 14 -26 30 -40 17 -14 30 -33 30 -42 0 -10 3 -18 8 -18 4 0 16
-15 26 -34 25 -48 27 -304 2 -318 -9 -5 -14 -13 -11 -18 6 -10 -105 -120 -122
-120 -7 0 -13 -4 -13 -10 0 -5 -7 -10 -16 -10 -8 0 -21 -6 -29 -13 -8 -9 -47
-14 -116 -16 -57 -1 -108 -7 -113 -12 -13 -12 -49 -12 -41 1 3 6 -3 10 -14 10
-12 0 -30 9 -41 20 -11 11 -29 20 -39 20 -10 0 -22 7 -25 16 -10 25 -8 25 22
7 22 -14 20 -9 -13 25 -39 42 -53 52 -39 30 4 -7 3 -8 -4 -4 -7 4 -12 19 -13
34 l-1 27 -7 -25 c-5 -18 -14 -25 -34 -26 -16 -1 -26 4 -24 10 2 6 10 11 18
11 16 0 28 21 28 50 l0 20 -9 -20 c-5 -11 -9 -14 -9 -7 -2 24 -21 12 -21 -13
0 -14 -7 -28 -16 -32 -11 -4 -13 -13 -9 -34 4 -15 2 -36 -3 -45 -9 -15 -11
-15 -22 6 l-12 23 -13 -24 c-8 -14 -10 -30 -5 -39 5 -9 3 -23 -6 -34 -12 -18
-14 -14 -11 35 4 61 -1 89 -15 89 -6 0 -7 -8 -4 -17 4 -9 1 -20 -5 -24 -6 -4
-13 -23 -14 -42 -2 -31 5 -43 41 -80 47 -49 133 -119 121 -99 -5 7 -3 12 7 12
18 0 30 -17 15 -22 -7 -2 -5 -9 5 -17 14 -11 16 -11 16 3 0 9 5 16 11 16 6 0
8 -8 4 -19 -4 -12 0 -21 11 -25 12 -4 15 -2 10 9 -3 8 -2 15 2 15 14 0 62 -37
56 -43 -3 -3 20 -14 52 -23 71 -21 215 -23 294 -5 89 21 209 85 273 146 66 63
137 167 137 201 0 13 5 26 10 29 6 3 10 24 10 46 0 21 5 39 10 39 6 0 10 50
10 130 0 80 -4 130 -10 130 -5 0 -10 12 -10 28 -1 18 -14 41 -40 67 -30 30
-40 48 -40 73 0 22 -5 32 -15 32 -8 0 -15 5 -15 10 0 6 4 10 10 10 5 0 7 7 4
15 -4 8 -10 12 -15 9 -5 -3 -9 2 -9 11 0 11 -6 15 -18 11 -13 -5 -18 0 -19 17
-4 52 -143 134 -276 161 -92 19 -229 19 -317 0z m-55 -74 c3 -6 1 -10 -4 -10
-6 0 -11 5 -11 10 0 6 -12 10 -27 10 -21 0 -24 3 -14 9 15 10 44 0 56 -19z
m-70 0 c3 -5 1 -10 -4 -10 -6 0 -11 5 -11 10 0 6 2 10 4 10 3 0 8 -4 11 -10z
m-35 -20 c0 -5 -5 -10 -11 -10 -5 0 -7 5 -4 10 3 6 8 10 11 10 2 0 4 -4 4 -10z
m30 -10 c0 -5 -4 -10 -9 -10 -5 0 -8 -7 -7 -16 0 -9 -6 -19 -14 -21 -9 -3 -11
-1 -5 4 6 4 10 14 11 21 2 27 4 32 14 32 6 0 10 -4 10 -10z m-50 -37 c0 -9 -5
-11 -12 -7 -9 5 -9 2 1 -9 11 -14 11 -17 0 -17 -11 0 -11 -2 1 -9 8 -6 17 -8
21 -5 4 2 10 0 14 -6 3 -5 -11 -16 -31 -25 -39 -16 -54 -9 -53 25 0 11 2 11 7
-2 4 -11 12 -14 20 -10 9 7 9 12 -2 27 -13 18 -15 18 -40 1 -15 -9 -32 -28
-38 -41 -6 -14 -15 -22 -19 -19 -13 8 9 44 48 80 36 33 83 42 83 17z m75 -4
c-10 -15 -25 -10 -19 6 4 8 10 12 15 9 5 -3 7 -10 4 -15z m681 -16 c-4 -4 -11
-1 -16 7 -16 25 -11 35 7 17 9 -9 13 -20 9 -24z m-836 -67 c0 -8 -7 -19 -15
-26 -24 -20 -18 -31 13 -24 26 7 27 6 9 -13 -9 -11 -14 -23 -11 -26 4 -4 2
-13 -5 -21 -9 -11 -7 -18 14 -34 22 -18 23 -21 7 -28 -9 -4 -24 -8 -32 -8 -8
-1 -15 -10 -15 -21 0 -15 -7 -20 -29 -21 -15 -1 -32 -7 -37 -15 -6 -10 -10 -5
-15 19 -4 17 -10 32 -15 32 -12 0 -5 39 14 82 9 21 17 42 17 48 0 16 15 12 40
-10 29 -25 33 -25 19 1 -7 13 -7 24 -2 28 6 3 13 19 17 34 6 27 26 29 26 3z
m69 -60 c10 -12 8 -13 -11 -8 -21 5 -22 4 -9 -12 9 -11 24 -16 38 -13 26 5 31
-8 7 -17 -8 -3 -28 4 -44 15 -22 17 -26 24 -17 35 15 17 22 17 36 0z m-212
-158 c-3 -8 -6 -5 -6 6 -1 11 2 17 5 13 3 -3 4 -12 1 -19z m230 0 c-3 -8 -6
-5 -6 6 -1 11 2 17 5 13 3 -3 4 -12 1 -19z m-16 -144 c-5 -16 -10 -21 -10 -12
-1 18 10 51 15 45 2 -1 -1 -16 -5 -33z m4 -264 c3 -5 1 -10 -4 -10 -6 0 -11 5
-11 10 0 6 2 10 4 10 3 0 8 -4 11 -10z m-105 -37 c0 -5 -5 -15 -10 -23 -8 -12
-10 -11 -10 8 0 12 5 22 10 22 6 0 10 -3 10 -7z m413 -50 c-7 -2 -19 -2 -25 0
-7 3 -2 5 12 5 14 0 19 -2 13 -5z m-353 -39 c0 -11 6 -14 23 -9 17 6 19 5 10
-5 -6 -7 -9 -19 -6 -27 8 -20 -35 15 -48 40 -7 13 -6 17 6 17 8 0 15 -7 15
-16z m78 -46 c-2 -6 -10 -14 -16 -16 -7 -2 -10 2 -6 12 7 18 28 22 22 4z m99
-44 c-3 -3 -12 -4 -19 -1 -8 3 -5 6 6 6 11 1 17 -2 13 -5z m93 -64 c0 -5 -5
-10 -11 -10 -5 0 -7 5 -4 10 3 6 8 10 11 10 2 0 4 -4 4 -10z"/>
<path d="M7835 4540 c-13 -30 -15 -44 -7 -52 8 -8 9 -5 5 11 -4 17 -1 21 17
21 18 0 21 -4 17 -21 -5 -20 -5 -20 14 -3 20 18 20 18 -6 32 -19 10 -24 18
-20 33 11 33 -1 21 -20 -21z"/>
<path d="M7832 4445 c0 -16 2 -22 5 -12 2 9 2 23 0 30 -3 6 -5 -1 -5 -18z"/>
<path d="M7215 4874 c46 -7 125 -8 125 -1 0 4 -33 6 -72 6 -40 -1 -64 -3 -53
-5z"/>
<path d="M7135 4860 c-7 -12 2 -12 30 0 19 8 19 9 -2 9 -12 1 -25 -3 -28 -9z"/>
<path d="M7365 4860 c3 -5 12 -10 19 -10 29 0 66 -25 60 -42 -6 -20 -1 -22 24
-10 17 9 62 -8 65 -24 1 -5 5 -8 8 -7 10 3 92 -80 107 -108 l13 -24 -21 24
c-16 19 -20 20 -20 6 0 -11 -5 -15 -15 -11 -8 3 -18 -2 -23 -11 -8 -14 -10
-14 -15 1 -4 9 -18 16 -32 16 -30 0 -76 -37 -59 -48 6 -4 14 -16 18 -27 7 -20
8 -20 22 -1 10 15 14 16 14 5 0 -8 -4 -19 -9 -24 -6 -6 -1 -11 15 -11 19 -2
24 3 24 23 0 20 4 24 20 20 16 -4 20 0 21 21 0 24 1 25 8 7 5 -11 6 -26 4 -32
-4 -10 3 -11 26 -7 20 4 31 3 31 -5 0 -6 -8 -11 -17 -12 -11 0 -13 -3 -5 -6 6
-2 12 -11 12 -19 0 -8 6 -14 14 -14 15 0 32 -35 28 -58 -2 -6 2 -20 8 -30 9
-14 10 -10 6 18 -3 19 -8 46 -12 59 -5 17 -4 22 4 17 7 -4 12 -14 12 -22 0 -9
5 -12 11 -8 8 5 10 0 6 -17 -3 -13 -2 -31 3 -39 7 -11 10 -7 10 16 0 39 -23
97 -35 87 -4 -5 -6 -1 -2 8 13 38 -87 166 -179 230 -76 52 -187 97 -169 69z
m315 -246 c0 -8 -5 -12 -10 -9 -6 4 -8 11 -5 16 9 14 15 11 15 -7z m20 -40 c0
-8 -5 -12 -10 -9 -6 4 -8 11 -5 16 9 14 15 11 15 -7z"/>
<path d="M7330 4846 c0 -2 9 -6 20 -9 11 -3 18 -1 14 4 -5 9 -34 13 -34 5z"/>
<path d="M7385 4820 c4 -6 11 -8 16 -5 14 9 11 15 -7 15 -8 0 -12 -5 -9 -10z"/>
<path d="M7460 4780 c0 -5 4 -10 9 -10 6 0 13 5 16 10 3 6 -1 10 -9 10 -9 0
-16 -4 -16 -10z"/>
<path d="M7491 4756 c-9 -11 -6 -12 14 -8 14 2 22 8 19 13 -8 13 -20 11 -33
-5z"/>
<path d="M7535 4750 c-4 -7 -2 -16 6 -21 18 -11 23 -4 11 17 -7 12 -11 13 -17
4z"/>
<path d="M4512 4223 l-2 -533 130 0 130 0 1 88 c1 48 1 130 0 182 l-1 95 58
59 c31 32 47 54 35 48 -12 -7 -30 -22 -40 -35 -10 -13 -31 -32 -48 -42 -27
-18 -29 -18 -16 -2 13 16 12 21 -12 43 -15 14 -27 32 -27 40 0 8 -9 32 -20 54
-21 40 -27 67 -10 40 8 -13 10 -12 10 3 0 9 5 17 10 17 16 0 12 37 -5 44 -17
6 -20 36 -4 36 8 0 7 5 -1 15 -12 14 -15 26 -19 80 -1 16 -5 13 -16 -12 -12
-28 -16 -31 -42 -24 -15 5 -27 14 -25 20 1 7 -7 15 -18 18 -16 4 -20 14 -20
52 0 45 0 45 -14 20 -9 -17 -12 -45 -8 -80 2 -30 1 -51 -3 -47 -4 4 -11 85
-15 180 -5 126 -7 29 -8 -359z m245 -205 c-3 -7 -5 -2 -5 12 0 14 2 19 5 13 2
-7 2 -19 0 -25z"/>
<path d="M7540 4700 c0 -5 6 -10 13 -10 8 0 7 -4 -3 -10 -11 -8 -5 -10 23 -8
39 2 44 7 25 26 -15 15 -58 16 -58 2z"/>
<path d="M7235 4660 c11 -5 29 -8 40 -8 16 0 15 2 -5 8 -34 11 -60 11 -35 0z"/>
<path d="M7128 4653 c7 -3 16 -2 19 1 4 3 -2 6 -13 5 -11 0 -14 -3 -6 -6z"/>
<path d="M7397 4642 c-15 -6 -13 -9 13 -19 24 -9 30 -9 30 3 0 8 -6 11 -17 7
-11 -4 -14 -3 -9 5 8 13 8 13 -17 4z"/>
<path d="M7444 4574 c3 -9 6 -20 6 -25 0 -6 5 -7 10 -4 16 10 12 45 -6 45 -11
0 -14 -5 -10 -16z"/>
<path d="M7590 4565 c0 -9 5 -13 10 -10 6 4 10 -5 10 -20 0 -24 24 -45 37 -31
10 10 -14 54 -37 66 -16 9 -20 8 -20 -5z"/>
<path d="M7482 4528 c0 -18 -3 -43 -7 -55 -5 -15 -3 -23 4 -23 6 0 11 8 11 18
0 13 2 14 9 4 6 -10 10 -6 14 14 3 19 -1 36 -13 52 l-19 23 1 -33z"/>
<path d="M7540 4510 c0 -5 5 -10 10 -10 6 0 10 5 10 10 0 6 -4 10 -10 10 -5 0
-10 -4 -10 -10z"/>
<path d="M4750 4480 c0 -5 5 -10 10 -10 6 0 10 5 10 10 0 6 -4 10 -10 10 -5 0
-10 -4 -10 -10z"/>
<path d="M4712 4437 c-9 -11 -10 -17 -2 -22 15 -9 23 -1 18 21 -3 15 -4 16
-16 1z"/>
<path d="M4747 4429 c-3 -13 -1 -19 6 -16 15 5 22 37 9 37 -5 0 -12 -9 -15
-21z"/>
<path d="M7566 4433 c-10 -10 -7 -81 4 -88 6 -3 15 6 20 21 8 20 8 29 -1 35
-6 4 -9 11 -5 17 7 12 -8 25 -18 15z"/>
<path d="M4804 4408 l-19 -23 23 19 c21 18 27 26 19 26 -2 0 -12 -10 -23 -22z"/>
<path d="M7490 4364 c0 -40 4 -63 10 -59 5 3 8 26 7 51 -2 25 1 48 5 50 5 3 8
2 7 -3 -1 -4 -1 -17 0 -28 2 -19 2 -19 12 -2 14 24 3 52 -21 54 -18 2 -20 -4
-20 -63z"/>
<path d="M2033 4315 c0 -44 2 -61 4 -37 2 23 2 59 0 80 -2 20 -4 1 -4 -43z"/>
<path d="M7522 4330 c0 -14 2 -19 5 -12 2 6 2 18 0 25 -3 6 -5 1 -5 -13z"/>
<path d="M5074 4305 c8 -8 18 -15 22 -15 3 0 1 7 -6 15 -7 8 -17 15 -22 15 -5
0 -3 -7 6 -15z"/>
<path d="M6842 4270 c0 -14 2 -19 5 -12 2 6 2 18 0 25 -3 6 -5 1 -5 -13z"/>
<path d="M7490 4263 c0 -22 2 -25 10 -13 13 20 13 40 0 40 -5 0 -10 -12 -10
-27z"/>
<path d="M5100 4271 c0 -6 5 -11 10 -11 6 0 10 -7 10 -15 0 -8 -9 -15 -20 -15
-23 0 -27 -15 -5 -24 8 -3 21 2 30 10 12 12 15 13 15 2 0 -8 -6 -20 -12 -28
-11 -12 -10 -12 5 -1 18 15 27 11 31 -11 3 -22 17 -39 27 -33 5 4 9 1 9 -4 0
-17 -18 -13 -41 10 -24 24 -24 24 -32 -16 -4 -16 -4 -25 -1 -19 6 13 44 7 44
-7 0 -5 -4 -8 -9 -6 -5 1 -9 -2 -10 -8 0 -13 42 -6 51 9 5 8 13 6 25 -7 17
-17 17 -18 -1 -11 -12 5 -17 4 -13 -2 3 -6 2 -16 -4 -24 -7 -13 -9 -12 -9 3 0
32 -66 10 -80 -28 -6 -16 -14 -23 -22 -19 -6 4 -8 3 -5 -3 4 -6 -1 -14 -10
-17 -10 -4 -20 -1 -26 10 -7 13 -11 13 -17 4 -6 -10 -15 -6 -34 15 -33 36 -43
29 -12 -10 12 -15 33 -30 46 -32 28 -4 40 -19 39 -48 0 -16 -2 -15 -15 8 -9
16 -18 27 -20 24 -3 -3 4 -19 15 -38 l20 -32 6 26 c4 15 11 27 15 27 5 0 11
10 13 23 2 12 3 7 1 -11 -1 -18 1 -30 6 -27 4 3 21 -2 36 -10 l29 -15 -42 6
c-30 5 -43 3 -43 -5 0 -7 4 -10 9 -6 5 3 13 -4 16 -16 4 -12 3 -24 -3 -28 -7
-4 -5 -13 4 -25 7 -11 17 -16 21 -12 4 4 1 11 -7 16 -8 5 -11 13 -6 17 4 4 14
0 21 -10 23 -32 105 -44 105 -15 0 5 5 6 10 3 14 -9 12 31 -2 57 -20 35 -41
48 -55 36 -10 -8 -13 -6 -13 6 0 10 4 15 9 11 5 -3 17 2 26 11 9 9 17 15 18
13 28 -51 36 -73 30 -82 -4 -6 0 -8 10 -4 9 3 20 1 24 -6 11 -18 13 -57 2 -57
-6 0 -7 -5 -3 -11 4 -7 -4 -10 -22 -8 -16 2 -35 0 -42 -4 -6 -5 -17 -5 -22 -2
-18 11 -23 -26 -6 -43 15 -15 16 -15 16 2 0 15 2 15 14 4 9 -9 27 -13 50 -10
35 4 37 6 33 36 -2 20 2 35 12 43 14 11 14 12 -1 13 -21 0 -23 13 -5 32 8 7
17 27 21 43 6 26 6 28 -6 13 -25 -33 -41 -26 -43 19 -2 32 0 39 10 30 6 -7 14
-19 17 -27 2 -8 7 -10 10 -4 4 5 -10 28 -30 51 -21 23 -75 94 -122 158 -87
119 -100 134 -100 116z m160 -222 c0 -6 -4 -7 -10 -4 -5 3 -10 11 -10 16 0 6
5 7 10 4 6 -3 10 -11 10 -16z m-47 -56 c-3 -7 -10 -10 -16 -6 -8 5 -8 8 0 10
7 3 9 12 6 21 -4 14 -3 14 5 3 6 -8 8 -20 5 -28z m46 -8 c0 -5 -4 -3 -9 5 -5
8 -9 22 -9 30 0 16 17 -16 18 -35z m35 22 c8 -12 7 -20 -3 -29 -12 -11 -13
-10 -8 5 4 11 1 20 -8 23 -18 7 -21 28 -3 22 6 -2 16 -12 22 -21z m2 -66 c0
-11 -4 -17 -8 -15 -4 3 -8 12 -8 20 0 8 4 14 8 14 4 0 8 -9 8 -19z m-99 -53
c-3 -8 -6 -5 -6 6 -1 11 2 17 5 13 3 -3 4 -12 1 -19z m-23 -3 c3 -9 0 -15 -9
-15 -8 0 -15 7 -15 15 0 8 4 15 9 15 5 0 11 -7 15 -15z m49 -52 c-7 -2 -19 -2
-25 0 -7 3 -2 5 12 5 14 0 19 -2 13 -5z m54 -65 c-3 -8 -6 -5 -6 6 -1 11 2 17
5 13 3 -3 4 -12 1 -19z"/>
<path d="M7807 4263 c-10 -10 -8 -35 2 -29 5 4 12 0 14 -6 3 -7 6 -1 6 15 1
26 -8 34 -22 20z"/>
<path d="M7780 4195 c0 -42 31 -139 61 -189 11 -20 22 -36 23 -36 1 0 3 33 5
73 1 39 3 81 4 91 1 10 -4 21 -12 24 -9 3 -11 -1 -7 -16 4 -12 -1 -33 -14 -54
-17 -28 -20 -30 -20 -11 0 12 4 33 10 47 6 17 6 26 0 26 -6 0 -10 5 -10 11 0
5 3 8 8 6 4 -3 8 6 8 19 2 20 0 21 -12 9 -8 -7 -14 -20 -14 -27 0 -8 -5 -5
-11 6 -8 12 -8 21 -1 25 6 4 5 11 -4 19 -12 11 -14 7 -14 -23z m40 -66 c0 -5
-4 -9 -10 -9 -5 0 -10 7 -10 16 0 8 5 12 10 9 6 -3 10 -10 10 -16z m26 -86
c-10 -10 -19 5 -10 18 6 11 8 11 12 0 2 -7 1 -15 -2 -18z"/>
<path d="M4930 4150 c0 -11 -4 -20 -10 -20 -5 0 -10 7 -10 15 0 8 -5 15 -11
15 -13 0 19 -54 48 -82 l21 -20 11 20 c8 15 8 23 0 27 -7 5 -5 13 6 25 11 12
13 20 6 25 -13 7 -34 -42 -27 -62 8 -21 -8 -15 -23 9 -11 18 -11 22 3 30 8 5
13 15 10 23 -9 22 -24 18 -24 -5z"/>
<path d="M7895 4138 c2 -22 25 -39 25 -18 0 7 7 10 16 6 14 -5 15 -4 4 9 -7 8
-16 12 -21 9 -5 -3 -9 0 -9 5 0 6 -4 11 -8 11 -5 0 -8 -10 -7 -22z"/>
<path d="M7985 4130 c3 -5 8 -10 11 -10 2 0 4 5 4 10 0 6 -5 10 -11 10 -5 0
-7 -4 -4 -10z"/>
<path d="M4770 4120 c0 -5 5 -10 10 -10 6 0 10 5 10 10 0 6 -4 10 -10 10 -5 0
-10 -4 -10 -10z"/>
<path d="M4994 4068 c-3 -5 0 -7 8 -6 7 2 12 -4 10 -14 -4 -26 14 -30 34 -6
17 19 17 21 2 15 -11 -4 -18 -2 -18 7 0 14 -28 18 -36 4z"/>
<path d="M4240 3971 c0 -11 31 -24 39 -16 3 3 -1 10 -9 15 -19 12 -30 12 -30
1z"/>
<path d="M3860 3936 c13 -13 180 -13 202 -1 12 7 -18 10 -97 10 -72 0 -110 -4
-105 -9z"/>
<path d="M4125 3940 c3 -5 8 -10 11 -10 2 0 4 5 4 10 0 6 -5 10 -11 10 -5 0
-7 -4 -4 -10z"/>
<path d="M4311 3908 c-1 -10 5 -18 12 -18 7 0 17 -8 23 -17 8 -14 6 -22 -8
-35 -10 -11 -20 -13 -24 -7 -4 6 -11 6 -20 -2 -10 -8 -14 -8 -14 0 0 6 -4 11
-9 11 -10 0 -9 -19 1 -36 7 -10 -24 -44 -40 -44 -4 0 -13 -5 -20 -12 -6 -6
-17 -13 -24 -14 -7 -2 -28 -7 -47 -13 -19 -6 -30 -7 -25 -2 5 5 18 11 28 13
11 1 21 10 23 18 3 11 2 12 -4 3 -5 -7 -22 -11 -38 -10 -18 1 -30 -3 -31 -10
-1 -7 -2 -17 -3 -21 -2 -11 -40 -12 -46 -1 -10 16 -33 10 -40 -10 -4 -12 -12
-18 -20 -14 -8 3 -12 9 -9 14 3 5 10 7 15 4 5 -4 9 -1 9 4 0 16 -22 13 -49 -5
-18 -13 -36 -15 -88 -9 -37 4 -72 9 -80 12 -7 3 -13 1 -13 -5 0 -14 102 -32
180 -32 78 0 198 28 267 64 61 30 171 118 155 124 -7 2 -12 10 -12 18 0 8 -5
14 -11 14 -5 0 -7 5 -3 12 5 7 2 9 -9 5 -9 -3 -18 -1 -21 6 -2 7 -5 4 -5 -5z
m-1 -93 c0 -18 -26 -20 -36 -3 -4 6 -3 8 4 4 6 -3 13 -2 17 4 9 14 15 12 15
-5z"/>
<path d="M5383 3908 c4 -10 3 -18 -2 -18 -4 0 -8 -13 -8 -30 0 -16 4 -30 9
-30 9 0 11 14 8 45 -2 17 0 18 17 5 16 -13 16 -12 -2 10 -11 14 -22 27 -24 30
-2 3 -1 -3 2 -12z"/>
<path d="M5297 3863 c-10 -9 -9 -23 1 -23 5 0 9 7 9 15 0 17 -1 18 -10 8z"/>
<path d="M5400 3816 c0 -14 29 -31 38 -21 6 6 -18 35 -29 35 -5 0 -9 -6 -9
-14z"/>
<path d="M5156 3811 c-3 -5 1 -14 8 -20 12 -10 13 -8 9 8 -6 23 -9 25 -17 12z"/>
<path d="M5456 3806 c3 -8 13 -17 22 -21 13 -5 13 -2 -3 15 -21 24 -26 25 -19
6z"/>
<path d="M4183 3782 c-8 -5 -9 -13 -3 -22 7 -10 10 -11 10 -2 0 6 12 12 28 13
24 0 25 1 7 9 -26 11 -28 11 -42 2z"/>
<path d="M5405 3780 c-3 -5 -1 -10 4 -10 6 0 11 5 11 10 0 6 -2 10 -4 10 -3 0
-8 -4 -11 -10z"/>
<path d="M3615 3770 c3 -6 21 -17 38 -26 l32 -16 -30 26 c-31 26 -51 34 -40
16z"/>
<path d="M5451 3772 c-1 -7 -6 -10 -13 -6 -7 4 -8 3 -4 -5 4 -6 12 -9 17 -6 5
4 9 -1 9 -9 0 -13 -14 -15 -87 -12 -49 1 -101 -1 -117 -5 -25 -7 -33 -4 -53
19 -32 38 -29 22 5 -19 l27 -35 105 -1 c58 0 96 3 85 7 -17 6 -14 9 17 15 46
9 77 -6 33 -16 -29 -6 -29 -7 8 -8 20 0 37 2 37 7 0 13 -15 28 -34 35 -11 5
-16 13 -12 23 3 8 2 13 -3 9 -5 -3 -12 1 -14 7 -4 10 -6 10 -6 0z m-88 -59
c-24 -2 -62 -2 -85 0 -24 2 -5 4 42 4 47 0 66 -2 43 -4z"/>
<path d="M8140 3750 c0 -5 5 -10 11 -10 5 0 7 5 4 10 -3 6 -8 10 -11 10 -2 0
-4 -4 -4 -10z"/>
<path d="M5520 3730 c0 -5 5 -10 11 -10 5 0 7 5 4 10 -3 6 -8 10 -11 10 -2 0
-4 -4 -4 -10z"/>
<path d="M3719 3715 c19 -8 36 -13 39 -10 8 8 0 12 -38 19 l-35 7 34 -16z"/>
<path d="M3823 3714 c7 -8 87 -7 95 0 3 3 -19 6 -48 6 -29 0 -51 -3 -47 -6z"/>
<path d="M5538 3703 c7 -3 16 -2 19 1 4 3 -2 6 -13 5 -11 0 -14 -3 -6 -6z"/>
<path d="M6871 3265 c-2 -93 -3 -177 -2 -185 1 -11 -1 -11 -9 3 -13 21 -30 22
-30 2 0 -12 -17 -15 -90 -15 -49 0 -91 3 -91 8 -1 4 -3 20 -5 36 -5 47 -12 40
-11 -12 l0 -50 118 2 c65 1 121 5 124 8 3 3 4 88 2 189 l-2 184 -4 -170z"/>
<path d="M6836 3125 c-3 -8 -1 -15 4 -15 6 0 10 7 10 15 0 8 -2 15 -4 15 -2 0
-6 -7 -10 -15z"/>
<path d="M6698 3083 c23 -2 61 -2 85 0 23 2 4 4 -43 4 -47 0 -66 -2 -42 -4z"/>
</g>
</svg>
